<svg id="Layer_2" data-name="Layer 2" xmlns="http://www.w3.org/2000/svg" viewBox="0 0 1060 909.85"><defs><style>.cls-1,.cls-22,.cls-39{fill:none}.cls-2,.cls-41{fill:#fff}.cls-3{font-size:12px}.cls-3,.cls-37{fill:#212121}.cls-3,.cls-41{font-family:Roboto,sans-serif}.cls-4,.cls-5,.cls-6{letter-spacing:-.02em}.cls-8{letter-spacing:-.01em}.cls-10,.cls-9{letter-spacing:0}.cls-11{letter-spacing:-.01em}.cls-12{letter-spacing:-.03em}.cls-13{letter-spacing:-.01em}.cls-14{letter-spacing:.01em}.cls-15,.cls-17{letter-spacing:-.02em}.cls-18,.cls-19{letter-spacing:0}.cls-21{letter-spacing:-.03em}.cls-22{stroke:#afbdc4;stroke-linecap:square;stroke-width:2px}.cls-22,.cls-39{stroke-miterlimit:10}.cls-23{fill:#afbdc4;fill-rule:evenodd}.cls-24{letter-spacing:-.01em}.cls-27{clip-path:url(#clip-path-2)}.cls-28{fill:#4285f4}.cls-30{opacity:.07}.cls-34{clip-path:url(#clip-path-8)}.cls-41{isolation:isolate}.cls-39{stroke:#eee;stroke-width:.91px}.cls-40{fill:#fd574e}.cls-41{font-size:11px}.cls-42{letter-spacing:-.01em}.cls-43{fill:#109d58}</style><clipPath id="clip-path"><path class="cls-1" d="M190.56 484.77l-13.45-23.84a5.87 5.87 0 0 0-5-3.06h-26.9a5.91 5.91 0 0 0-5 3.06l-13.46 23.76a6.11 6.11 0 0 0 0 5.95l13.45 24a6 6 0 0 0 5 3.18h26.9a6 6 0 0 0 5-3.15l13.44-23.84a6.1 6.1 0 0 0 .02-6.06z"/></clipPath><clipPath id="clip-path-2"><path class="cls-1" d="M-428.95-1287.81h1808.24v6191.98H-428.95z"/></clipPath><clipPath id="clip-path-3"><path class="cls-1" d="M156.26 471.57l-7.4 1.5 2.59 4.34.37 9.22v6l-3 7.54L165 517.78h7.08a5.94 5.94 0 0 0 5-3.16l11.21-19.86z"/></clipPath><clipPath id="clip-path-5"><path class="cls-1" d="M147.87 472.2a1.79 1.79 0 0 1 2.07 1 104.32 104.32 0 0 1 5.83 12.49l-7.47 14.24-.43-2.18L152 485.7zm11.61 4.43l1.64 7H169zm-3.74-5.29l19.77 14.53L155 500l5.11-14.1z"/></clipPath><clipPath id="clip-path-7"><path class="cls-1" d="M496 367l-13.4-23.82a5.93 5.93 0 0 0-5.05-3.06h-26.9a5.93 5.93 0 0 0-5 3.06l-13.46 23.76a6.08 6.08 0 0 0 0 6l13.44 24a6 6 0 0 0 5.05 3.17h26.9a6 6 0 0 0 5-3.14L496 373.05a6.11 6.11 0 0 0 0-6.05z"/></clipPath><clipPath id="clip-path-8"><path class="cls-1" d="M-100.47-1429.45h1808.24v6191.98H-100.47z"/></clipPath><clipPath id="clip-path-9"><path class="cls-1" d="M461.74 353.82l-7.39 1.51 2.59 4.34.37 9.22v6l-3 7.53L470.45 400h7.09a5.94 5.94 0 0 0 5-3.16L493.79 377z"/></clipPath><clipPath id="clip-path-11"><path class="cls-1" d="M453.36 354.45a1.81 1.81 0 0 1 2.07 1 106.26 106.26 0 0 1 5.82 12.55l-7.46 14.24-.43-2.18 4.17-12.06zm11.64 4.43l1.64 7h7.91zm-3.75-5.29L481 368.12l-20.53 14.1 5.12-14.1z"/></clipPath></defs><title>124128631_Serverless _ NEXT 19 _ New _ Serverless guide</title><path class="cls-2" d="M0 0h1060v909.85H0z"/><text class="cls-3" transform="translate(744.75 170.11)"><tspan class="cls-4">D</tspan><tspan x="8.2" y="0">ri</tspan><tspan class="cls-5" x="15.41" y="0">v</tspan><tspan x="21.4" y="0">en </tspan><tspan class="cls-6" x="37.67" y="0">b</tspan><tspan x="44.65" y="0">y</tspan><tspan x="50.84" y="0" letter-spacing="-.02em"> </tspan><tspan class="cls-8" x="53.39" y="0">C</tspan><tspan class="cls-9" x="62.16" y="0">lou</tspan><tspan class="cls-10" x="78.4" y="0">d </tspan><tspan class="cls-11" x="88.4" y="0">o</tspan><tspan x="95.44" y="0">r</tspan><tspan class="cls-8" x="7.63" y="14.4">F</tspan><tspan x="13.88" y="14.4">i</tspan><tspan class="cls-12" x="16.6" y="14.4">r</tspan><tspan x="20.74" y="14.4">eb</tspan><tspan class="cls-13" x="34.72" y="14.4">a</tspan><tspan class="cls-14" x="41.03" y="14.4">s</tspan><tspan x="46.76" y="14.4">e </tspan><tspan class="cls-8" x="56.3" y="14.4">e</tspan><tspan class="cls-5" x="62.94" y="14.4">v</tspan><tspan x="68.93" y="14.4">e</tspan><tspan class="cls-15" x="75.68" y="14.4">n</tspan><tspan x="82.12" y="14.4" letter-spacing=".01em">t</tspan><tspan class="cls-10" x="86.63" y="14.4">s</tspan></text><text class="cls-3" transform="translate(312.28 177.02)"><tspan class="cls-15">S</tspan><tspan class="cls-8" x="6.43" y="0">ta</tspan><tspan class="cls-17" x="16.96" y="0">t</tspan><tspan x="21.08" y="0">e</tspan><tspan class="cls-13" x="27.84" y="0">l</tspan><tspan class="cls-14" x="30.31" y="0">e</tspan><tspan x="37.13" y="0">ss HTTP</tspan></text><text class="cls-3" transform="translate(296.86 240.65)">N<tspan class="cls-18" x="8.5" y="0">ee</tspan><tspan class="cls-19" x="22.13" y="0">d </tspan><tspan class="cls-6" x="32.14" y="0">K</tspan><tspan x="39.4" y="0">ubern</tspan><tspan class="cls-5" x="71.34" y="0">e</tspan><tspan x="77.91" y="0" letter-spacing="-.02em">t</tspan><tspan class="cls-18" x="82.04" y="0">e</tspan><tspan class="cls-10" x="88.86" y="0">s </tspan><tspan class="cls-8" x="97.32" y="0">o</tspan><tspan x="104.35" y="0">r</tspan><tspan class="cls-9" x="-9.48" y="14.4">c</tspan><tspan class="cls-8" x="-2.99" y="14.4">on</tspan><tspan class="cls-9" x="10.66" y="14.4">fig</tspan><tspan class="cls-19" x="24.83" y="14.4">u</tspan><tspan class="cls-6" x="31.56" y="14.4">r</tspan><tspan x="35.82" y="14.4">a</tspan><tspan class="cls-13" x="42.19" y="14.4">bl</tspan><tspan x="51.83" y="14.4">e </tspan><tspan class="cls-13" x="61.37" y="14.4">h</tspan><tspan x="68.08" y="14.4">a</tspan><tspan class="cls-12" x="74.45" y="14.4">r</tspan><tspan class="cls-19" x="78.59" y="14.4">d</tspan><tspan class="cls-11" x="85.81" y="14.4">w</tspan><tspan x="95.02" y="14.4">a</tspan><tspan class="cls-21" x="101.39" y="14.4">r</tspan><tspan x="105.53" y="14.4">e?</tspan></text><path class="cls-22" d="M243.18 335.35v-15.1a19.32 19.32 0 0 1 19.32-19.32h70.31a19.32 19.32 0 0 0 19.32-19.29v-11"/><path class="cls-23" d="M243.17 339.92l-5.78-6.47h11.45l-5.67 6.47z"/><path class="cls-22" d="M461.08 335.35v-15.1a19.32 19.32 0 0 0-19.32-19.32h-70.31a19.32 19.32 0 0 1-19.32-19.29v-11"/><path class="cls-23" d="M461.09 339.92l5.78-6.47h-11.45l5.67 6.47z"/><text class="cls-3" transform="translate(176.98 360.87)">N<tspan class="cls-18" x="8.5" y="0">ee</tspan><tspan x="22.13" y="0">d c</tspan><tspan class="cls-13" x="38.69" y="0">us</tspan><tspan class="cls-17" x="50.98" y="0">t</tspan><tspan class="cls-11" x="55.1" y="0">o</tspan><tspan x="62.14" y="0">m </tspan><tspan class="cls-13" x="75.42" y="0">l</tspan><tspan x="77.89" y="0">a</tspan><tspan class="cls-13" x="84.26" y="0">nguag</tspan><tspan class="cls-14" x="118.13" y="0">e</tspan><tspan x="124.94" y="0">s </tspan><tspan x="10.04" y="14.4">and s</tspan><tspan class="cls-8" x="38.83" y="14.4">y</tspan><tspan class="cls-9" x="44.9" y="14.4">s</tspan><tspan class="cls-17" x="50.52" y="14.4">t</tspan><tspan x="54.65" y="14.4">em li</tspan><tspan class="cls-11" x="79.93" y="14.4">b</tspan><tspan class="cls-6" x="87.03" y="14.4">r</tspan><tspan x="91.29" y="14.4">ar</tspan><tspan class="cls-13" x="102.17" y="14.4">i</tspan><tspan class="cls-14" x="104.82" y="14.4">e</tspan><tspan x="111.63" y="14.4">s?</tspan></text><text class="cls-3" transform="translate(267.26 485.73)"><tspan class="cls-5">S</tspan><tspan x="6.55" y="0">u</tspan><tspan class="cls-11" x="13.28" y="0">p</tspan><tspan x="20.34" y="0">p</tspan><tspan class="cls-11" x="27.52" y="0">o</tspan><tspan class="cls-17" x="34.55" y="0">rt</tspan><tspan class="cls-14" x="43.22" y="0">e</tspan><tspan x="50.04" y="0">d </tspan><tspan class="cls-13" x="60.05" y="0">l</tspan><tspan class="cls-19" x="62.52" y="0">a</tspan><tspan class="cls-9" x="68.89" y="0">nguag</tspan><tspan class="cls-14" x="102.75" y="0">e</tspan><tspan x="109.57" y="0">s*</tspan></text><text class="cls-3" transform="translate(445.61 485.58)">Un<tspan class="cls-9" x="14.56" y="0">i</tspan><tspan x="17.21" y="0">t </tspan><tspan class="cls-24" x="24.38" y="0">o</tspan><tspan x="31.36" y="0">f </tspan><tspan class="cls-9" x="38.69" y="0">d</tspan><tspan x="45.85" y="0">e</tspan><tspan class="cls-11" x="52.61" y="0">p</tspan><tspan class="cls-13" x="59.66" y="0">l</tspan><tspan class="cls-4" x="62.14" y="0">o</tspan><tspan class="cls-10" x="69.05" y="0">yme</tspan><tspan x="92.5" y="0" letter-spacing="-.03em">n</tspan><tspan x="98.93" y="0">t</tspan></text><path class="cls-23" d="M617.75 674.18l6.47-5.77v11.44l-6.47-5.67z"/><text class="cls-3" transform="translate(381.4 603.31)"><tspan class="cls-14">A</tspan><tspan class="cls-8" x="8.09" y="0">pp</tspan><tspan x="22.2" y="0">l</tspan><tspan class="cls-13" x="24.73" y="0">ic</tspan><tspan class="cls-8" x="33.88" y="0">a</tspan><tspan class="cls-18" x="40.13" y="0">t</tspan><tspan class="cls-9" x="44.58" y="0">i</tspan><tspan class="cls-8" x="47.23" y="0">o</tspan><tspan x="54.26" y="0">n</tspan></text><text class="cls-3" transform="translate(559.16 603.31)"><tspan class="cls-4">F</tspan><tspan x="6.13" y="0">un</tspan><tspan class="cls-9" x="19.6" y="0">c</tspan><tspan class="cls-18" x="26.09" y="0">t</tspan><tspan class="cls-9" x="30.54" y="0">i</tspan><tspan class="cls-8" x="33.19" y="0">o</tspan><tspan x="40.22" y="0">n</tspan></text><text class="cls-3" transform="translate(130.92 537.81)"><tspan class="cls-8">C</tspan><tspan class="cls-13" x="8.77" y="0">lou</tspan><tspan x="25.01" y="0">d </tspan><tspan class="cls-8" x="35.02" y="0">R</tspan><tspan class="cls-19" x="41.93" y="0">un</tspan></text><g clip-path="url(#clip-path)"><g class="cls-27"><path class="cls-28" d="M119.61 451.59h78.01v72.47h-78.01z"/></g></g><g clip-path="url(#clip-path-3)"><g class="cls-27"><path class="cls-30" d="M142.59 465.29h52v58.77h-52z"/></g></g><g clip-path="url(#clip-path-5)"><g class="cls-27"><path class="cls-2" d="M141.59 465.06h40.2v41.19h-40.2z"/></g></g><text class="cls-3" transform="translate(406.84 420.07)"><tspan class="cls-8">C</tspan><tspan class="cls-9" x="8.77" y="0">lou</tspan><tspan x="25.01" y="0">d </tspan><tspan class="cls-8" x="35.02" y="0">R</tspan><tspan x="41.93" y="0">un</tspan><tspan class="cls-6" x="55.39" y="0"> </tspan><tspan x="57.94" y="0" letter-spacing="-.03em">f</tspan><tspan class="cls-11" x="62.11" y="0">o</tspan><tspan x="69.14" y="0">r</tspan><tspan class="cls-12" x="73.64" y="0"> </tspan><tspan x="76.07" y="0">A</tspan><tspan class="cls-15" x="84.1" y="0">n</tspan><tspan class="cls-18" x="90.53" y="0">t</tspan><tspan x="94.98" y="0">h</tspan><tspan class="cls-13" x="101.75" y="0">o</tspan><tspan class="cls-10" x="108.84" y="0">s</tspan></text><g clip-path="url(#clip-path-7)"><g class="cls-34"><path class="cls-28" d="M425.09 333.84h78.01v72.47h-78.01z"/></g></g><g clip-path="url(#clip-path-9)"><g class="cls-34"><path class="cls-30" d="M448.07 347.54h52v58.77h-52z"/></g></g><g clip-path="url(#clip-path-11)"><g class="cls-34"><path class="cls-2" d="M447.08 347.31h40.2v41.19h-40.2z"/></g></g><text class="cls-3" transform="translate(538.5 724.65)"><tspan class="cls-8">C</tspan><tspan class="cls-9" x="8.77" y="0">lou</tspan><tspan x="25.01" y="0">d </tspan><tspan class="cls-4" x="35.02" y="0">F</tspan><tspan x="41.15" y="0">un</tspan><tspan class="cls-13" x="54.61" y="0">c</tspan><tspan class="cls-14" x="61.1" y="0">t</tspan><tspan class="cls-13" x="65.56" y="0">i</tspan><tspan class="cls-11" x="68.21" y="0">o</tspan><tspan class="cls-13" x="75.24" y="0">n</tspan><tspan x="81.91" y="0">s</tspan></text><path class="cls-28" d="M614.85 671.61l-13.7-23.84a6 6 0 0 0-5.14-3.06h-27.42a6 6 0 0 0-5.14 3.06l-13.71 23.79a6 6 0 0 0 0 6l13.71 24a6.14 6.14 0 0 0 5.14 3.17H596a6.11 6.11 0 0 0 5.14-3.16l13.71-23.84a6.09 6.09 0 0 0 0-6"/><path class="cls-30" d="M598 667l-2 2 .43 12.3-1.8 2.61-1-1.05h1v-4.28l-4.6-4.6-3.31 1.66.1.37L575 664.24l-5.64 2.85-.68 5.76 1.95 10.54 2.82 2.77-1.21 2 16.52 16.51H596a6.14 6.14 0 0 0 5.15-3.16l11.42-19.87z"/><path class="cls-2" d="M572.18 688l2.76-2.76-4.56-4.14v-12.85l4.56-4.14-2.76-2.76-6.56 5.52v15.61l6.56 5.52z"/><path class="cls-2" d="M576.45 672.72a2 2 0 1 1-2 1.95 1.95 1.95 0 0 1 2-1.95M582.3 672.72a2 2 0 1 1-2 1.95 1.95 1.95 0 0 1 2-1.95M588.15 672.72a2 2 0 1 1-2 1.95 1.95 1.95 0 0 1 2-1.95"/><path class="cls-2" d="M592.39 661.35l-2.76 2.76 4.58 4.14v12.85l-4.58 4.14 2.76 2.76 6.58-5.52v-15.61l-6.58-5.52z"/><path class="cls-37" d="M359.45 716.06h1.16l3.26 8.59h-1.12l-.86-2.36h-3.71l-.86 2.36h-1.12zm2.09 5.27l-1.14-3.1-.35-.92-.34.92-1.14 3.1zM364.82 718.53h1v.91a2.16 2.16 0 0 1 .83-.78 2.51 2.51 0 0 1 1.26-.32 2.71 2.71 0 0 1 1.48.42 3 3 0 0 1 1.06 1.16 3.88 3.88 0 0 1 0 3.35 2.94 2.94 0 0 1-1.06 1.15 2.71 2.71 0 0 1-1.48.42 2.5 2.5 0 0 1-1.26-.31 2.24 2.24 0 0 1-.83-.78V727.24h-1zm4 5.1a2.06 2.06 0 0 0 .75-.82 2.55 2.55 0 0 0 .28-1.22 2.58 2.58 0 0 0-.28-1.22 2.13 2.13 0 0 0-.75-.82 1.85 1.85 0 0 0-2 0 2 2 0 0 0-.74.82 2.53 2.53 0 0 0-.28 1.22 2.57 2.57 0 0 0 .28 1.23 2 2 0 0 0 .74.81 1.85 1.85 0 0 0 2 0zM371.87 718.53h1v.91a2.27 2.27 0 0 1 .84-.78 2.5 2.5 0 0 1 1.25-.32 2.75 2.75 0 0 1 1.49.42 3 3 0 0 1 1.06 1.16 3.88 3.88 0 0 1 0 3.35 2.94 2.94 0 0 1-1.06 1.15 2.75 2.75 0 0 1-1.49.42 2.49 2.49 0 0 1-1.25-.31 2.35 2.35 0 0 1-.84-.78V727.24h-1zm4 5.1a2.06 2.06 0 0 0 .75-.82 2.55 2.55 0 0 0 .28-1.22 2.58 2.58 0 0 0-.28-1.22 2.13 2.13 0 0 0-.75-.82 1.9 1.9 0 0 0-1-.29 1.87 1.87 0 0 0-1 .29 2.06 2.06 0 0 0-.75.82 2.64 2.64 0 0 0-.27 1.22 2.68 2.68 0 0 0 .27 1.23 2 2 0 0 0 .75.81 1.87 1.87 0 0 0 1 .29 1.9 1.9 0 0 0 .99-.29zM382.09 716.06h5v1h-4v2.85h3.58v1h-3.58v2.84h4v1h-5zM388.37 718.53h1v.9a2.08 2.08 0 0 1 .81-.77 2.34 2.34 0 0 1 1.17-.32 2.16 2.16 0 0 1 1.69.64 2.5 2.5 0 0 1 .58 1.75v3.92h-1v-3.77a1.59 1.59 0 0 0-.41-1.23 1.53 1.53 0 0 0-1.11-.39 1.51 1.51 0 0 0-.88.28 1.82 1.82 0 0 0-.61.73 2.2 2.2 0 0 0-.22.94v3.44h-1zM396 726.93a2.43 2.43 0 0 1-.94-1.21l.92-.4a1.86 1.86 0 0 0 .68.86 2.2 2.2 0 0 0 2.59-.2 2 2 0 0 0 .53-1.51v-.68h-.05a2.25 2.25 0 0 1-.85.76 2.52 2.52 0 0 1-1.24.29 2.63 2.63 0 0 1-1.45-.41 2.88 2.88 0 0 1-1-1.15 3.84 3.84 0 0 1 0-3.37 2.91 2.91 0 0 1 1-1.16 2.72 2.72 0 0 1 1.45-.41 2.64 2.64 0 0 1 1.24.29 2.22 2.22 0 0 1 .85.78h.05v-.88h1v5.88a2.92 2.92 0 0 1-.82 2.25 3.36 3.36 0 0 1-3.93.27zm2.79-3.29a2 2 0 0 0 .72-.8 2.71 2.71 0 0 0 .27-1.25 2.68 2.68 0 0 0-.27-1.25 1.93 1.93 0 0 0-2.73-.8 2 2 0 0 0-.73.81 2.67 2.67 0 0 0-.27 1.24 2.71 2.71 0 0 0 .27 1.25 2 2 0 0 0 .73.81 1.92 1.92 0 0 0 1 .27 1.85 1.85 0 0 0 .96-.28zM402.29 717.2a.72.72 0 0 1-.21-.52.69.69 0 0 1 .21-.51.75.75 0 0 1 1 0 .69.69 0 0 1 .21.51.72.72 0 0 1-.21.52.71.71 0 0 1-.52.22.74.74 0 0 1-.48-.22zm0 1.33h1v6.12h-1zM404.92 718.53h1v.9h.05a2.08 2.08 0 0 1 .81-.77 2.31 2.31 0 0 1 1.17-.32 2.16 2.16 0 0 1 1.69.64 2.5 2.5 0 0 1 .58 1.75v3.92h-1v-3.77a1.63 1.63 0 0 0-.41-1.23 1.67 1.67 0 0 0-2-.11 1.79 1.79 0 0 0-.6.73 2.06 2.06 0 0 0-.22.94v3.44h-1zM412.81 724.42a2.87 2.87 0 0 1-1.09-1.15 3.77 3.77 0 0 1 0-3.3 3 3 0 0 1 1-1.19 2.82 2.82 0 0 1 1.56-.44 2.92 2.92 0 0 1 1.56.4 2.73 2.73 0 0 1 1 1.11 3.64 3.64 0 0 1 .35 1.62 1.35 1.35 0 0 1 0 .31h-4.84a2.38 2.38 0 0 0 .34 1.18 1.94 1.94 0 0 0 .76.72 2.07 2.07 0 0 0 1 .24 2 2 0 0 0 1.82-1.1l.86.42a3.1 3.1 0 0 1-1.07 1.17 3 3 0 0 1-1.64.43 3 3 0 0 1-1.61-.42zm3.33-3.48a2 2 0 0 0-.21-.76 1.58 1.58 0 0 0-.61-.65 1.87 1.87 0 0 0-1-.27 1.74 1.74 0 0 0-1.22.47 2.17 2.17 0 0 0-.65 1.21zM421.69 724.38a2.51 2.51 0 0 1-.94-1.18l.91-.41a1.81 1.81 0 0 0 .68.85 1.75 1.75 0 0 0 1 .3 1.9 1.9 0 0 0 1-.23.75.75 0 0 0 .09-1.28 3.14 3.14 0 0 0-1-.41l-.75-.19a2.73 2.73 0 0 1-1.2-.61 1.57 1.57 0 0 1-.15-2.05 2.14 2.14 0 0 1 .85-.61 2.86 2.86 0 0 1 1.14-.22 2.91 2.91 0 0 1 1.43.35 2 2 0 0 1 .9 1l-.89.41a1.48 1.48 0 0 0-1.45-.82 1.59 1.59 0 0 0-.88.24.66.66 0 0 0-.38.59.69.69 0 0 0 .26.55 2.17 2.17 0 0 0 .79.34l.89.23a2.94 2.94 0 0 1 1.36.67 1.5 1.5 0 0 1 .45 1.1 1.55 1.55 0 0 1-.32 1 2.11 2.11 0 0 1-.88.66 3.16 3.16 0 0 1-1.22.22 2.76 2.76 0 0 1-1.69-.5zM428.47 724.72a1.49 1.49 0 0 1-.53-.33 1.42 1.42 0 0 1-.36-.54 2 2 0 0 1-.12-.74v-3.65h-1.07v-.93h1.07v-1.73h1v1.73H430v.93h-1.49v3.41a1.23 1.23 0 0 0 .19.76.81.81 0 0 0 .66.27 1.2 1.2 0 0 0 .67-.21v1l-.36.12a3.23 3.23 0 0 1-.48 0 1.92 1.92 0 0 1-.72-.09zM431.84 724.58a2 2 0 0 1-.82-.73 1.92 1.92 0 0 1-.29-1.05 1.78 1.78 0 0 1 .74-1.51 2.94 2.94 0 0 1 1.84-.55 4.22 4.22 0 0 1 1 .12 2.47 2.47 0 0 1 .73.28v-.38a1.36 1.36 0 0 0-.48-1.09 1.79 1.79 0 0 0-1.22-.42 2.1 2.1 0 0 0-.94.22 1.8 1.8 0 0 0-.69.62l-.77-.57a2.47 2.47 0 0 1 1-.87 3.09 3.09 0 0 1 1.4-.31 2.81 2.81 0 0 1 2 .65 2.3 2.3 0 0 1 .72 1.79v3.87h-1v-.87H435a2.32 2.32 0 0 1-2 1.06 2.58 2.58 0 0 1-1.16-.26zm2.25-.9a1.93 1.93 0 0 0 .71-.71 1.82 1.82 0 0 0 .27-1 2.58 2.58 0 0 0-.71-.31 3.24 3.24 0 0 0-.89-.12 1.94 1.94 0 0 0-1.27.35 1.11 1.11 0 0 0-.42.9 1 1 0 0 0 .38.81 1.48 1.48 0 0 0 1 .31 1.78 1.78 0 0 0 .93-.23zM437.45 718.53h1v.9a2.08 2.08 0 0 1 .81-.77 2.34 2.34 0 0 1 1.17-.32 2.16 2.16 0 0 1 1.69.64 2.5 2.5 0 0 1 .58 1.75v3.92h-1v-3.77a1.63 1.63 0 0 0-.41-1.23 1.53 1.53 0 0 0-1.11-.39 1.51 1.51 0 0 0-.88.28 1.82 1.82 0 0 0-.61.73 2.2 2.2 0 0 0-.22.94v3.44h-1zM445.3 724.42a2.85 2.85 0 0 1-1.05-1.15 3.79 3.79 0 0 1 0-3.35 2.88 2.88 0 0 1 1.05-1.16 2.69 2.69 0 0 1 1.48-.42 2.51 2.51 0 0 1 1.26.32 2.27 2.27 0 0 1 .84.78h.05l-.05-.85v-2.53h1v8.59h-1v-.9h-.05a2.35 2.35 0 0 1-.84.78 2.5 2.5 0 0 1-1.26.31 2.69 2.69 0 0 1-1.43-.42zm2.6-.79a2 2 0 0 0 .74-.81 2.57 2.57 0 0 0 .29-1.23 2.53 2.53 0 0 0-.29-1.22 2 2 0 0 0-.74-.82 1.87 1.87 0 0 0-2 0 2.13 2.13 0 0 0-.75.82 2.58 2.58 0 0 0-.28 1.22 2.55 2.55 0 0 0 .28 1.22 2.06 2.06 0 0 0 .75.82 1.87 1.87 0 0 0 2 0zM452.11 724.58a2 2 0 0 1-.82-.73 1.92 1.92 0 0 1-.29-1.05 1.8 1.8 0 0 1 .73-1.51 3 3 0 0 1 1.85-.55 4.22 4.22 0 0 1 1 .12 2.39 2.39 0 0 1 .72.28v-.38a1.36 1.36 0 0 0-.48-1.09 1.76 1.76 0 0 0-1.21-.42 2.17 2.17 0 0 0-.95.22 1.85 1.85 0 0 0-.68.62l-.77-.57a2.47 2.47 0 0 1 1-.87 3.09 3.09 0 0 1 1.4-.31 2.81 2.81 0 0 1 2 .65 2.3 2.3 0 0 1 .72 1.79v3.87h-1v-.87a2.36 2.36 0 0 1-2 1.06 2.58 2.58 0 0 1-1.22-.26zm2.25-.9a2 2 0 0 0 .71-.71 1.81 1.81 0 0 0 .26-1 2.38 2.38 0 0 0-.7-.31 3.24 3.24 0 0 0-.89-.12 1.94 1.94 0 0 0-1.27.35 1.11 1.11 0 0 0-.42.9 1 1 0 0 0 .38.81 1.48 1.48 0 0 0 1 .31 1.78 1.78 0 0 0 .93-.23zM457.72 718.53h1v1h.05a1.62 1.62 0 0 1 .7-.84 1.89 1.89 0 0 1 1.08-.34 1.75 1.75 0 0 1 .72.13v1.09a2.06 2.06 0 0 0-.87-.19 1.49 1.49 0 0 0-.81.25 1.88 1.88 0 0 0-.6.68 2.11 2.11 0 0 0-.22.92v3.43h-1zM463 724.42a3 3 0 0 1-1.05-1.15 3.88 3.88 0 0 1 0-3.35 3 3 0 0 1 1.05-1.16 2.74 2.74 0 0 1 1.48-.42 2.46 2.46 0 0 1 1.26.32 2.27 2.27 0 0 1 .84.78h.05l-.05-.85v-2.53h1v8.59h-1v-.9h-.05a2.35 2.35 0 0 1-.84.78 2.45 2.45 0 0 1-1.26.31 2.74 2.74 0 0 1-1.43-.42zm2.61-.79a2.16 2.16 0 0 0 .74-.81 2.57 2.57 0 0 0 .28-1.23 2.53 2.53 0 0 0-.28-1.22 2.19 2.19 0 0 0-.74-.82 1.91 1.91 0 0 0-1-.29 1.87 1.87 0 0 0-1 .29 2.13 2.13 0 0 0-.75.82 2.58 2.58 0 0 0-.28 1.22 2.55 2.55 0 0 0 .28 1.22 2.06 2.06 0 0 0 .75.82 1.87 1.87 0 0 0 1 .29 1.91 1.91 0 0 0 .97-.29zM380 738.82a2.87 2.87 0 0 1-1.09-1.15 3.77 3.77 0 0 1 0-3.3 3 3 0 0 1 1-1.19 2.77 2.77 0 0 1 1.56-.44 2.92 2.92 0 0 1 1.56.4 2.71 2.71 0 0 1 1 1.11 3.51 3.51 0 0 1 .35 1.62 1.35 1.35 0 0 1 0 .31h-4.84a2.48 2.48 0 0 0 .34 1.18 1.94 1.94 0 0 0 .76.72 2.08 2.08 0 0 0 1 .24 2 2 0 0 0 1.81-1.1l.86.42a3.1 3.1 0 0 1-1.07 1.17 3.24 3.24 0 0 1-3.21 0zm3.33-3.48a1.81 1.81 0 0 0-.21-.76 1.58 1.58 0 0 0-.61-.65 1.85 1.85 0 0 0-1-.27 1.7 1.7 0 0 0-1.21.47 2.18 2.18 0 0 0-.66 1.21zM385.63 732.93h1v.9a2.08 2.08 0 0 1 .81-.77 2.31 2.31 0 0 1 1.17-.32 2.16 2.16 0 0 1 1.69.64 2.5 2.5 0 0 1 .58 1.75v3.92h-1v-3.77a1.63 1.63 0 0 0-.41-1.23 1.67 1.67 0 0 0-2-.11 1.79 1.79 0 0 0-.6.73 2.06 2.06 0 0 0-.22.94v3.44h-1zM391.45 732.93h1.09l1.9 4.92 1.92-4.92h1.07l-2.43 6.12h-1zM398.38 731.6a.69.69 0 0 1-.22-.52.67.67 0 0 1 .22-.51.69.69 0 0 1 .51-.21.73.73 0 0 1 .52.21.69.69 0 0 1 .21.51.72.72 0 0 1-.21.52.71.71 0 0 1-1 0zm0 1.33h1v6.12h-1zM401 732.93h1v1a1.67 1.67 0 0 1 .7-.84 1.89 1.89 0 0 1 1.08-.34 1.75 1.75 0 0 1 .72.13V734a2 2 0 0 0-.86-.19 1.49 1.49 0 0 0-.82.25 1.77 1.77 0 0 0-.59.68 2 2 0 0 0-.23.92v3.43h-1zM406.34 738.81a3.07 3.07 0 0 1-1.12-1.17 3.41 3.41 0 0 1-.4-1.65 3.35 3.35 0 0 1 .4-1.64 3 3 0 0 1 1.12-1.18 3.13 3.13 0 0 1 4.37 1.18 3.46 3.46 0 0 1 .4 1.64 3.53 3.53 0 0 1-.4 1.65 3.2 3.2 0 0 1-4.37 1.17zM409 738a2 2 0 0 0 .78-.81 2.47 2.47 0 0 0 .3-1.24 2.44 2.44 0 0 0-.3-1.23 1.91 1.91 0 0 0-.78-.72 2 2 0 0 0-1.05-.29 2.08 2.08 0 0 0-1 .29 2 2 0 0 0-.79.81 2.54 2.54 0 0 0-.29 1.23 2.58 2.58 0 0 0 .29 1.24 2.12 2.12 0 0 0 .79.81 2.07 2.07 0 0 0 1 .28A2 2 0 0 0 409 738zM412.18 732.93h1v.9h.05a2 2 0 0 1 .8-.77 2.35 2.35 0 0 1 1.18-.32 2.15 2.15 0 0 1 1.68.64 2.5 2.5 0 0 1 .58 1.75v3.92h-1v-3.77a1.63 1.63 0 0 0-.4-1.23 1.57 1.57 0 0 0-1.12-.39 1.51 1.51 0 0 0-.88.28 1.9 1.9 0 0 0-.61.73 2.19 2.19 0 0 0-.21.94v3.44h-1zM418.91 732.93h1v.9h.05a2.26 2.26 0 0 1 1.91-1.09 2.18 2.18 0 0 1 1.17.32 1.83 1.83 0 0 1 .71.87 2.56 2.56 0 0 1 .86-.87 2.38 2.38 0 0 1 1.24-.32 2 2 0 0 1 1.59.64 2.63 2.63 0 0 1 .53 1.75v3.92h-1v-3.77a1.81 1.81 0 0 0-.35-1.23 1.31 1.31 0 0 0-1-.39 1.37 1.37 0 0 0-.83.27 1.7 1.7 0 0 0-.58.71 2.18 2.18 0 0 0-.21 1v3.45h-1v-3.79a1.83 1.83 0 0 0-.35-1.25 1.29 1.29 0 0 0-1-.39 1.37 1.37 0 0 0-.83.27 1.8 1.8 0 0 0-.58.72 2.29 2.29 0 0 0-.21 1v3.43h-1zM430.56 738.82a2.94 2.94 0 0 1-1.09-1.15 3.55 3.55 0 0 1-.39-1.67 3.71 3.71 0 0 1 .37-1.63 3 3 0 0 1 1-1.19 2.82 2.82 0 0 1 1.56-.44 2.92 2.92 0 0 1 1.56.4 2.64 2.64 0 0 1 1 1.11 3.51 3.51 0 0 1 .36 1.62 1.3 1.3 0 0 1 0 .31h-4.83a2.48 2.48 0 0 0 .34 1.18 1.94 1.94 0 0 0 .76.72 2.08 2.08 0 0 0 1 .24 2 2 0 0 0 1.81-1.1l.86.42a3.1 3.1 0 0 1-1.07 1.17 3.24 3.24 0 0 1-3.21 0zm3.34-3.48a2 2 0 0 0-.22-.76 1.58 1.58 0 0 0-.61-.65 1.84 1.84 0 0 0-1-.27 1.72 1.72 0 0 0-1.22.47 2.24 2.24 0 0 0-.66 1.21zM436.16 732.93h1v.9a2.08 2.08 0 0 1 .81-.77 2.34 2.34 0 0 1 1.17-.32 2.16 2.16 0 0 1 1.69.64 2.5 2.5 0 0 1 .58 1.75v3.92h-1v-3.77a1.59 1.59 0 0 0-.41-1.23 1.53 1.53 0 0 0-1.11-.39 1.51 1.51 0 0 0-.88.28 1.82 1.82 0 0 0-.61.73 2.2 2.2 0 0 0-.22.94v3.44h-1zM444.26 739.12a1.63 1.63 0 0 1-.54-.33 1.42 1.42 0 0 1-.36-.54 2 2 0 0 1-.12-.74v-3.65h-1.06v-.93h1.06v-1.73h1v1.73h1.49v.93h-1.49v3.41a1.23 1.23 0 0 0 .2.76.81.81 0 0 0 .66.27 1.23 1.23 0 0 0 .67-.21v1a2.29 2.29 0 0 1-.37.12 3 3 0 0 1-.47 0 1.92 1.92 0 0 1-.67-.09z"/><path class="cls-28" d="M444.66 671.55L431 647.76a6 6 0 0 0-5.13-3H398.5a6 6 0 0 0-5.13 3l-13.68 23.74a6 6 0 0 0 0 5.94l13.68 23.9a6.13 6.13 0 0 0 5.13 3.16h27.35a6.09 6.09 0 0 0 5.13-3.15l13.68-23.78a6.12 6.12 0 0 0 0-6"/><path class="cls-30" d="M431.55 673.56l-.36-.11-18.14-18.15-3.72 5.45 3.12 3.12-7.94 2.89-3.11 7.89-3-3-5.49 4.82L421 704.5h4.9a6.09 6.09 0 0 0 5.13-3.15l10.36-18z"/><path class="cls-2" d="M412.17 662.62a12 12 0 1 0 12 12 12 12 0 0 0-12-12m0 21.08a9.1 9.1 0 1 1 9.1-9.09 9.09 9.09 0 0 1-9.1 9.09M431 673.19l-5-1.57a14 14 0 0 1 .32 3 13.23 13.23 0 0 1-.16 2.1H431a.88.88 0 0 0 .74-.82V674a.87.87 0 0 0-.74-.81M412.17 660.49a14.93 14.93 0 0 1 2.93.3l-1.79-5a.89.89 0 0 0-.82-.75h-.75a.88.88 0 0 0-.82.75l-1.56 4.95a14.47 14.47 0 0 1 2.81-.28M398.06 674.61a14 14 0 0 1 .32-3l-5 1.57a.87.87 0 0 0-.74.82v1.88a.88.88 0 0 0 .74.82h4.84a13.23 13.23 0 0 1-.16-2.1"/><path class="cls-2" d="M416.45 670.7l-1.13 1.13a4.31 4.31 0 1 0-6.1 6.1l-1.14 1.14a5.93 5.93 0 0 0 10.11-4.19 5.85 5.85 0 0 0-1.74-4.18m-2.34 5.84a2.75 2.75 0 1 1 0-3.87 2.7 2.7 0 0 1 0 3.87"/><path class="cls-22" d="M870.15 173.29h21a19.32 19.32 0 0 1 19.32 19.32v462.2a19.32 19.32 0 0 1-19.32 19.32H624.22"/><text transform="translate(532.68 49.32)" style="isolation:isolate" font-family="Roboto,sans-serif" fill="#212121" font-size="12">W<tspan class="cls-13" x="11.33" y="0">h</tspan><tspan class="cls-8" x="18.04" y="0">a</tspan><tspan x="24.29" y="0">t kind </tspan><tspan class="cls-24" x="56.98" y="0">o</tspan><tspan x="63.95" y="0">f a</tspan><tspan class="cls-11" x="77.65" y="0">p</tspan><tspan x="84.71" y="0">p </tspan><tspan x="1.58" y="14.4">a</tspan><tspan class="cls-21" x="7.95" y="14.4">r</tspan><tspan x="12.09" y="14.4">e </tspan><tspan class="cls-6" x="21.63" y="14.4">y</tspan><tspan class="cls-13" x="27.58" y="14.4">o</tspan><tspan x="34.67" y="14.4">u </tspan><tspan class="cls-13" x="44.19" y="14.4">b</tspan><tspan x="51.35" y="14.4">ui</tspan><tspan class="cls-9" x="60.8" y="14.4">l</tspan><tspan class="cls-10" x="63.27" y="14.4">di</tspan><tspan class="cls-13" x="73.21" y="14.4">n</tspan><tspan class="cls-10" x="79.88" y="14.4">g?</tspan></text><rect class="cls-39" x="505.02" y="26.69" width="150" height="50" rx="7.3"/><rect class="cls-39" x="719.72" y="148.68" width="150" height="50" rx="7.3"/><rect class="cls-39" x="277.03" y="148.39" width="150" height="50" rx="7.3"/><rect class="cls-39" x="277.03" y="219.05" width="150" height="50" rx="7.3"/><rect class="cls-39" x="167.51" y="340.08" width="150" height="50" rx="7.3"/><rect class="cls-39" x="422.27" y="456.95" width="150" height="50" rx="7.3"/><rect class="cls-39" x="507.64" y="574.68" width="150" height="50" rx="7.3"/><rect class="cls-39" x="336.9" y="574.68" width="150" height="50" rx="7.3"/><path class="cls-22" d="M402.79 481.66h12"/><path class="cls-23" d="M421.65 481.62l-6.46 5.76v-11.44l6.46 5.68z"/><path class="cls-22" d="M582.35 625.98v11.4"/><path class="cls-23" d="M582.35 644.61l-5.77-6.47h11.44l-5.67 6.47z"/><path class="cls-22" d="M412.21 625.98v13.7"/><path class="cls-23" d="M412.21 644.41l-5.77-6.47h11.44l-5.67 6.47z"/><rect class="cls-39" x="252.21" y="457.53" width="150" height="50" rx="7.3"/><path class="cls-40" d="M309.11 289.64a17.5 17.5 0 1 1-24.75 0 17.51 17.51 0 0 1 24.75 0"/><text class="cls-41" transform="translate(288.48 305.55)"><tspan class="cls-42">N</tspan><tspan x="7.68" y="0">O</tspan></text><path class="cls-43" d="M423.6 289.84a17.5 17.5 0 1 1-24.75 0 17.51 17.51 0 0 1 24.75 0"/><text class="cls-41" transform="translate(401.84 305.71)">YES</text><path class="cls-22" d="M351.87 142.62v-15.1c0-10.67 7.34-19.32 16.38-19.32h195.07c9 0 16.37-8.63 16.38-19.29v-11"/><path class="cls-23" d="M351.81 147.4l-5.79-6.47h11.46l-5.67 6.47z"/><path class="cls-22" d="M807.18 142.62v-15.1c0-10.67-7.31-19.32-16.32-19.32H596.49c-9 0-16.3-8.63-16.31-19.29v-11"/><path class="cls-23" d="M807.12 147.4l5.78-6.47h-11.45l5.67 6.47z"/><path class="cls-22" d="M412.12 571v-13.1a19.32 19.32 0 0 1 19.32-19.32H477a19.32 19.32 0 0 0 19.32-19.29v-11"/><path class="cls-23" d="M412.21 573.47l-5.77-6.47h11.44l-5.67 6.47z"/><path class="cls-22" d="M580.42 571v-13.1a19.32 19.32 0 0 0-19.32-19.32h-45.51a19.32 19.32 0 0 1-19.32-19.29v-11"/><path class="cls-23" d="M580.33 573.47l5.78-6.47h-11.46l5.68 6.47z"/><path class="cls-22" d="M158.53 454.75v-13.1a19.32 19.32 0 0 1 19.32-19.32h45.51A19.32 19.32 0 0 0 242.68 403v-11"/><path class="cls-23" d="M158.62 457.22l-5.78-6.47h11.45l-5.67 6.47z"/><path class="cls-22" d="M326.83 454.75v-13.1a19.32 19.32 0 0 0-19.32-19.32H262A19.31 19.31 0 0 1 242.68 403v-11"/><path class="cls-23" d="M326.73 457.22l5.78-6.47h-11.45l5.67 6.47z"/><path class="cls-22" d="M351.93 199.39v15"/><path class="cls-23" d="M351.93 218.65l-5.77-6.47h11.44l-5.67 6.47z"/><path class="cls-43" d="M211.18 408.84a17.5 17.5 0 1 1-24.75 0 17.5 17.5 0 0 1 24.75 0"/><text class="cls-41" transform="translate(189.42 424.71)">YES</text><path class="cls-40" d="M299.11 409.24a17.5 17.5 0 1 1-24.75 0 17.5 17.5 0 0 1 24.75 0"/><text class="cls-41" transform="translate(278.48 425.15)"><tspan class="cls-42">N</tspan><tspan x="7.68" y="0">O</tspan></text></svg>
