<svg xmlns="http://www.w3.org/2000/svg" viewBox="0 0 880 730" width="880" height="730"><defs><clipPath id="a"><path d="M22 59h118v93H22z"/></clipPath><clipPath id="b"><path d="M22 176h118v93H22z"/></clipPath><clipPath id="c"><path d="M22 293h118v93H22z"/></clipPath><clipPath id="d"><path d="M22 410h118v93H22z"/></clipPath><clipPath id="e"><path d="M722 437.5h116v56H722z"/></clipPath><clipPath id="f"><path d="M722 561.5h116v56H722z"/></clipPath><clipPath id="g"><path d="M722 626h116v56H722z"/></clipPath><clipPath id="h"><path d="M722 96h116v56H722z"/></clipPath><clipPath id="i"><path d="M722 161.5h116v56H722z"/></clipPath><clipPath id="j"><path d="M722 280h116v56H722z"/></clipPath><clipPath id="k"><path d="M366 228.5h116v56H366z"/></clipPath><clipPath id="l"><path d="M429.5 58h114v56h-114z"/></clipPath><clipPath id="m"><path d="M304.5 58h114v56h-114z"/></clipPath><clipPath id="n"><path d="M193 323.5h119v56H193z"/></clipPath><clipPath id="o"><path d="M193 388h119v56H193z"/></clipPath><clipPath id="p"><path d="M193 452.5h119v56H193z"/></clipPath><clipPath id="q"><path d="M362.5 384.5h119v56h-119z"/></clipPath><clipPath id="r"><path d="M539.483 246h119v56h-119z"/></clipPath><clipPath id="s"><path d="M539.483 181.5h119v56h-119z"/></clipPath><clipPath id="t"><path d="M362.5 449h119v56h-119z"/></clipPath><marker orient="auto" overflow="visible" id="u" stroke-miterlimit="10" viewBox="-1 -5 10 10" markerWidth="10" markerHeight="10" color="#616161"><path d="M8 0H0m4-4l4 4-4 4" fill="none" stroke="currentColor"/></marker></defs><g fill="none"><title>Figure 2</title><title>Layer 1</title><title>zone external - blue</title><path fill="#e1f6fe" d="M178 285h149v235H178z"/><text transform="translate(188 300)" fill="#757575"><tspan font-family="Roboto" font-size="10" font-weight="400" x="0" y="9">Batch</tspan></text><title>zone external - green</title><path fill="#e2f3ec" d="M297 17.5h254v105H297z"/><text transform="translate(307 32.5)" fill="#757575"><tspan font-family="Roboto" font-size="10" font-weight="400" x="0" y="9">Stream processing</tspan></text><title>zone external - yellow</title><path fill="#fef7e0" d="M8 17.5h148.5V520H8z"/><text transform="translate(18 32.5)" fill="#757575"><tspan font-family="Roboto" font-size="10" font-weight="400" x="0" y="9">Sources</tspan></text><title>beacon</title><path fill="#fff" d="M22 59h118v93H22z"/><path stroke="#dfdfdf" stroke-linecap="round" stroke-linejoin="round" stroke-width="2" clip-path="url(#a)" d="M22 59h118v93H22z"/><text transform="translate(26 115)" fill="#212121"><tspan font-family="Roboto" font-size="12" font-weight="400" x="33.312" y="11">Sensors</tspan></text><path d="M76.714 88.2l1.229 1.229a4.328 4.328 0 0 1 6.114 0l1.229-1.229a6.079 6.079 0 0 0-8.572 0zM81 83a9.362 9.362 0 0 0-6.643 2.757l1.214 1.214a7.7 7.7 0 0 1 10.858 0l1.214-1.214A9.386 9.386 0 0 0 81 83zm2.457 7.714h-4.914a.972.972 0 0 0-.972.972v8.328c0 .543.429.986.972.986h4.914a.976.976 0 0 0 .986-.971v-8.343a.948.948 0 0 0-.943-.972h-.043zm.114 8.572H78.43v-6.857h5.142z" fill="#616161"/><title>storage</title><path fill="#fff" d="M22 176h118v93H22z"/><path stroke="#dfdfdf" stroke-linecap="round" stroke-linejoin="round" stroke-width="2" clip-path="url(#b)" d="M22 176h118v93H22z"/><text transform="translate(26 232)" fill="#212121"><tspan font-family="Roboto" font-size="12" font-weight="400" x="21.253" y="11">On-premises</tspan></text><path d="M72 212.6v3.6h18v-3.6zm3.6 2.7h-1.8v-1.8h1.8zM72 201.8v3.6h18v-3.6zm3.6 2.7h-1.8v-1.8h1.8zm-3.6 2.7v3.6h18v-3.6zm3.6 2.7h-1.8v-1.8h1.8z" fill="#797a7d"/><title>users</title><path fill="#fff" d="M22 293h118v93H22z"/><path stroke="#dfdfdf" stroke-linecap="round" stroke-linejoin="round" stroke-width="2" clip-path="url(#c)" d="M22 293h118v93H22z"/><text transform="translate(26 349)" fill="#212121"><tspan font-family="Roboto" font-size="12" font-weight="400" x="21.689" y="11">User activity</tspan></text><title>Shape_1_</title><path d="M84.273 325.182a2.462 2.462 0 0 0 2.454-2.455 2.462 2.462 0 0 0-2.454-2.454 2.462 2.462 0 0 0-2.455 2.454 2.462 2.462 0 0 0 2.455 2.455zm-6.546 0a2.462 2.462 0 0 0 2.455-2.455 2.462 2.462 0 0 0-2.455-2.454 2.462 2.462 0 0 0-2.454 2.454 2.462 2.462 0 0 0 2.454 2.455zm0 1.636c-1.909 0-5.727.955-5.727 2.864v2.045h11.455v-2.045c0-1.91-3.819-2.864-5.728-2.864zm6.546 0c-.232 0-.505.014-.791.041.954.682 1.609 1.61 1.609 2.823v2.045H90v-2.045c0-1.91-3.818-2.864-5.727-2.864z" fill="#616161"/><title>payment</title><path fill="#fff" d="M22 410h118v93H22z"/><path stroke="#dfdfdf" stroke-linecap="round" stroke-linejoin="round" stroke-width="2" clip-path="url(#d)" d="M22 410h118v93H22z"/><text transform="translate(26 466)" fill="#212121"><tspan font-family="Roboto" font-size="12" font-weight="400" x="40.281" y="11">OLTP</tspan></text><path d="M88.2 435.8H73.8c-.99 0-1.8.81-1.8 1.8v10.8c0 .99.81 1.8 1.8 1.8h14.4c.99 0 1.8-.81 1.8-1.8v-10.8c0-.99-.81-1.8-1.8-1.8zm0 12.6H73.8V443h14.4zm0-9H73.8v-1.8h14.4z" fill="#797a7d"/><title>zone external - yellow</title><path fill="#fef7e0" d="M690 17.5h183v692H690z"/><text transform="translate(700 32.5)" fill="#757575"><tspan font-family="Roboto" font-size="10" font-weight="400" x="0" y="9">Refined data</tspan></text><title>zone external - blue</title><path fill="#eaedf0" d="M700.216 356h162v344h-162z"/><path stroke="#fff" stroke-linecap="round" stroke-linejoin="round" stroke-width="2" d="M700.216 356h162v344h-162z"/><text transform="translate(710.216 371)" fill="#757575"><tspan font-family="Roboto" font-size="10" font-weight="400" x="0" y="9">Data marts</tspan></text><title>zone external - grey</title><path fill="#e1f6fe" d="M710.247 398.667h142.506v105H710.247z"/><path stroke="#fff" stroke-linecap="round" stroke-linejoin="round" stroke-width="2" d="M710.247 398.667h142.506v105H710.247z"/><text transform="translate(720.247 413.667)" fill="#757575"><tspan font-family="Roboto" font-size="10" font-weight="400" x="0" y="9">Data warehouse</tspan></text><title>BigQuery</title><path fill="#fff" d="M722 437.5h116v56H722z"/><path stroke="#dfdfdf" stroke-linecap="round" stroke-linejoin="round" stroke-width="2" clip-path="url(#e)" d="M722 437.5h116v56H722z"/><text transform="translate(773 458.5)" fill="#212121"><tspan font-family="Roboto" font-size="12" font-weight="400" x="0" y="11">BigQuery</tspan></text><title>BigQuery</title><title>Fill-1</title><path d="M765.666 464.214l-5.754-10.006c-.461-.8-1.297-1.286-2.158-1.286h-11.508c-.922 0-1.727.54-2.158 1.285l-5.754 9.986a2.51 2.51 0 0 0 0 2.502l5.754 10.052c.46.798 1.297 1.331 2.158 1.331h11.508c.922 0 1.727-.581 2.158-1.326l5.754-10.006a2.566 2.566 0 0 0 0-2.532" fill="#4285f4"/><title>Fill-4</title><path d="M759.912 476.752l3.835-6.67-8.11-8.11L752 461l-3.266 1.213-1.262 3.287 1.014 3.66 8.92 8.918h.348c.922 0 1.727-.581 2.158-1.326" fill="#000" fill-opacity=".07"/><title>Fill-6</title><path d="M752 469.35a3.85 3.85 0 1 1 0-7.7 3.85 3.85 0 0 1 0 7.7m0-8.924a5.074 5.074 0 1 0 0 10.147 5.074 5.074 0 0 0 0-10.147" fill="#fff"/><title>Fill-8</title><path d="M749.592 465.304v1.577a2.8 2.8 0 0 0 .958.98v-2.557z" fill="#fff"/><title>Fill-10</title><path d="M751.491 463.975v4.246c.163.03.33.048.501.048.157 0 .309-.017.458-.042v-4.252z" fill="#fff"/><title>Fill-12</title><path d="M753.48 465.96v1.872a2.8 2.8 0 0 0 .959-1.028v-.844z" fill="#fff"/><title>Fill-14</title><path d="M755.651 468.625l-.525.527a.237.237 0 0 0 0 .335l1.993 1.994a.238.238 0 0 0 .336 0l.526-.526a.238.238 0 0 0 0-.335l-1.994-1.995a.237.237 0 0 0-.336 0" fill="#fff"/><title>zone external - grey</title><path fill="#e1f6fe" d="M710.247 526h142.506v165H710.247z"/><path stroke="#fff" stroke-linecap="round" stroke-linejoin="round" stroke-width="2" d="M710.247 526h142.506v165H710.247z"/><text transform="translate(720.247 541)" fill="#757575"><tspan font-family="Roboto" font-size="10" font-weight="400" x="0" y="9">Hive, Spark, etc.</tspan></text><title>Cloud Dataproc</title><path fill="#fff" d="M722 561.5h116v56H722z"/><path stroke="#dfdfdf" stroke-linecap="round" stroke-linejoin="round" stroke-width="2" clip-path="url(#f)" d="M722 561.5h116v56H722z"/><text transform="translate(773 575.5)" fill="#212121"><tspan font-family="Roboto" font-size="12" font-weight="400" x="0" y="11">Cloud</tspan> <tspan font-family="Roboto" font-size="12" font-weight="400" x="0" y="25">Dataproc</tspan></text><title>Cloud Dataproc</title><title>Fill-1</title><path d="M765.666 588.214l-5.754-10.006c-.461-.8-1.297-1.286-2.158-1.286h-11.508c-.922 0-1.727.54-2.158 1.285l-5.754 9.986a2.51 2.51 0 0 0 0 2.502l5.754 10.052c.46.798 1.297 1.331 2.158 1.331h11.508c.922 0 1.727-.581 2.158-1.326l5.754-10.006a2.566 2.566 0 0 0 0-2.532" fill="#4285f4"/><title>Fill-4</title><path d="M753.633 583.703l-3.164.328-.971 7.049-2.803.06-.654 3.506 7.432 7.432h4.28c.923 0 1.728-.581 2.159-1.326l3.932-6.838z" fill="#000" fill-opacity=".07"/><title>Fill-7</title><path d="M750.676 586.198c.228.394.651.639 1.105.64a1.276 1.276 0 0 0 1.105-1.911 1.276 1.276 0 1 0-2.21 1.272m3.38-1.948a2.625 2.625 0 1 1-4.55 2.621 2.625 2.625 0 0 1 4.55-2.62" fill="#fff"/><title>Fill-9</title><path d="M749.156 591.995c.503.211.959.55 1.313 1.005v-6.562l-1.312-.874z" fill="#fff"/><title>Fill-11</title><path d="M754.996 593.174a1.273 1.273 0 0 0 2.207-.002 1.274 1.274 0 1 0-2.207.002m3.376-1.954a2.635 2.635 0 0 1 0 2.628 2.628 2.628 0 0 1-4.546.001 2.634 2.634 0 0 1 0-2.627 2.628 2.628 0 0 1 4.546-.002" fill="#fff"/><title>Fill-13</title><path d="M750.201 587.614l5.796 3.346 1.414-.699-5.683-3.28a3.277 3.277 0 0 1-1.527.633" fill="#fff"/><g><title>Fill-15</title><path d="M746.79 593.424a1.276 1.276 0 0 0 2.335-.307 1.276 1.276 0 1 0-2.335.307m3.378-1.95c.35.608.443 1.316.262 1.993a2.607 2.607 0 0 1-1.224 1.594 2.628 2.628 0 0 1-3.585-.962 2.608 2.608 0 0 1-.262-1.992 2.608 2.608 0 0 1 1.223-1.593 2.628 2.628 0 0 1 3.586.96" fill="#fff"/></g><g><title>Fill-17</title><path d="M755.37 589.986l-6.062 3.5-.085 1.564 5.478-3.162c-.069-.54.453-1.368.67-1.902" fill="#fff"/></g><g><title>Cloud Storage</title><path fill="#fff" d="M722 626h116v56H722z"/><path stroke="#dfdfdf" stroke-linecap="round" stroke-linejoin="round" stroke-width="2" clip-path="url(#g)" d="M722 626h116v56H722z"/><text transform="translate(773 640)" fill="#212121"><tspan font-family="Roboto" font-size="12" font-weight="400" x="0" y="11">Cloud</tspan> <tspan font-family="Roboto" font-size="12" font-weight="400" x="0" y="25">Storage</tspan></text><title>Cloud Storage</title><title>Fill-1</title><path d="M765.666 652.714l-5.754-10.006c-.461-.8-1.297-1.286-2.158-1.286h-11.508c-.922 0-1.727.54-2.158 1.285l-5.754 9.986a2.51 2.51 0 0 0 0 2.502l5.754 10.052c.46.798 1.297 1.331 2.158 1.331h11.508c.922 0 1.727-.581 2.158-1.326l5.754-10.006a2.566 2.566 0 0 0 0-2.532" fill="#4285f4"/><title>Fill-4</title><path d="M756.7 651.058l-7.913.727-1.533 1.529 1.303 1.304-1.29 2.29 9.669 9.67h.818c.922 0 1.727-.581 2.158-1.325l4.01-6.974z" fill="#000" fill-opacity=".07"/><title>Fill-6</title><path d="M755.124 652.74a.543.543 0 0 1 0-1.083.542.542 0 1 1 0 1.084m1.404-1.744h-9.064a.266.266 0 0 0-.266.265l.001 1.874c0 .146.12.265.265.265h9.064c.146 0 .265-.12.265-.265v-1.874a.266.266 0 0 0-.265-.265" fill="#fff"/><g><title>Fill-8</title><path d="M755.124 656.343a.541.541 0 1 1-.001-1.085.541.541 0 0 1 .001 1.085m1.404-1.745l-9.064.001a.266.266 0 0 0-.266.265l.001 1.874c0 .146.12.265.265.265h9.064c.146 0 .265-.12.265-.265v-1.874a.266.266 0 0 0-.265-.266" fill="#fff"/></g></g><g><title>zone external - grey</title><path fill="#e1f6fe" d="M700.216 59h162v169h-162z"/><path stroke="#fff" stroke-linecap="round" stroke-linejoin="round" stroke-width="2" d="M700.216 59h162v169h-162z"/><text transform="translate(710.216 74)" fill="#757575"><tspan font-family="Roboto" font-size="10" font-weight="400" x="0" y="9">Real-time store</tspan></text></g><g><title>Cloud Bigtable</title><path fill="#fff" d="M722 96h116v56H722z"/><path stroke="#dfdfdf" stroke-linecap="round" stroke-linejoin="round" stroke-width="2" clip-path="url(#h)" d="M722 96h116v56H722z"/><text transform="translate(773 110)" fill="#212121"><tspan font-family="Roboto" font-size="12" font-weight="400" x="0" y="11">Cloud</tspan> <tspan font-family="Roboto" font-size="12" font-weight="400" x="0" y="25">Bigtable</tspan></text><title>Cloud Bigtable</title><title>Fill-1</title><path d="M765.666 122.714l-5.754-10.006c-.461-.8-1.297-1.286-2.158-1.286h-11.508c-.922 0-1.727.54-2.158 1.285l-5.754 9.986a2.51 2.51 0 0 0 0 2.502l5.754 10.052c.46.798 1.297 1.331 2.158 1.331h11.508c.922 0 1.727-.581 2.158-1.326l5.754-10.006a2.566 2.566 0 0 0 0-2.532" fill="#4285f4"/><title>Fill-4</title><path d="M757.888 118.915l-.273 2.158-1.469-1.469-5.119-2.096 2.86 2.86-3.464-1.636-5.779 2.716 1.568 1.568-.106 6.082 7.48 7.48h4.168c.922 0 1.727-.581 2.158-1.326l5.226-9.088z" fill="#000" fill-opacity=".07"/><title>Fill-6</title><path d="M756.307 119.988l.004 4.523a.273.273 0 0 1-.136.236l-.734.424-.003-4.682a.548.548 0 0 0-.273-.472l-3.651-2.108a1.98 1.98 0 0 1-.982-1.566l5.502 3.173a.547.547 0 0 1 .273.472" fill="#fff"/><title>Fill-8</title><path d="M757.628 125.724l-3.914 2.264a.272.272 0 0 1-.273.001l-.735-.424 4.053-2.343a.545.545 0 0 0 .273-.472v-4.216c0-.655.328-1.269.865-1.633l.003 6.35a.548.548 0 0 1-.272.473" fill="#fff"/><title>Fill-10</title><path d="M753.322 129.736l-3.92-2.257a.275.275 0 0 1-.137-.237v-.848l4.057 2.339a.547.547 0 0 0 .545 0l3.65-2.108a1.975 1.975 0 0 1 1.847-.067l-5.497 3.178a.547.547 0 0 1-.545 0" fill="#fff"/><title>Fill-12</title><path d="M747.693 128.012l-.004-4.523c0-.097.052-.188.136-.236l.734-.424.003 4.682c0 .194.104.374.273.472l3.651 2.108c.567.327.934.918.98 1.566l-5.5-3.173a.545.545 0 0 1-.273-.472" fill="#fff"/><title>Fill-14</title><path d="M746.372 122.276l3.914-2.264a.272.272 0 0 1 .273-.001l.734.424-4.053 2.343a.545.545 0 0 0-.272.472v4.216c0 .656-.328 1.268-.865 1.634l-.004-6.352c0-.194.104-.374.273-.472" fill="#fff"/><title>Fill-16</title><path d="M750.678 118.264l3.92 2.258a.271.271 0 0 1 .136.236v.848l-4.056-2.338a.544.544 0 0 0-.544 0l-3.652 2.108a1.975 1.975 0 0 1-1.846.066l5.498-3.177a.544.544 0 0 1 .544-.001" fill="#fff"/><title>Fill-18</title><path d="M751.998 125.16a.301.301 0 0 1-.15-.04l-2.585-1.492v.651l2.735 1.58 2.735-1.58v-.65l-2.585 1.491a.3.3 0 0 1-.15.04" fill="#fff"/><g><title>Fill-20</title><path d="M752.148 126.465a.299.299 0 0 1-.3 0l-2.584-1.493v.482a.29.29 0 0 0 .144.25l2.446 1.412c.089.051.2.051.29 0l2.445-1.412a.29.29 0 0 0 .144-.25v-.482z" fill="#fff"/></g><g><title>Fill-22</title><path d="M751.998 124.514l2.735-1.579v-.306a.288.288 0 0 0-.144-.25l-2.446-1.412a.288.288 0 0 0-.29 0l-2.445 1.412a.288.288 0 0 0-.145.25v.306z" fill="#fff"/></g></g><g><title>Cloud Spanner</title><path fill="#fff" d="M722 161.5h116v56H722z"/><path stroke="#dfdfdf" stroke-linecap="round" stroke-linejoin="round" stroke-width="2" clip-path="url(#i)" d="M722 161.5h116v56H722z"/><text transform="translate(773 175.5)" fill="#212121"><tspan font-family="Roboto" font-size="12" font-weight="400" x="0" y="11">Cloud</tspan> <tspan font-family="Roboto" font-size="12" font-weight="400" x="0" y="25">Spanner</tspan></text><title>Cloud Spanner</title><title>Fill-1</title><path d="M765.666 188.214l-5.754-10.006c-.461-.8-1.297-1.286-2.158-1.286h-11.508c-.922 0-1.727.54-2.158 1.285l-5.754 9.986a2.51 2.51 0 0 0 0 2.502l5.754 10.052c.46.798 1.297 1.331 2.158 1.331h11.508c.922 0 1.727-.581 2.158-1.326l5.754-10.006a2.566 2.566 0 0 0 0-2.532" fill="#4285f4"/><title>Fill-4</title><path d="M754.188 184l-.83 1.274-2.014-2.013-.482 1.95-1.05 1.005 2.145 2.145.03 1.998-1.874.508-2.05-.376-1.95 1.802 1.061 1.061-.405.076 8.648 8.648h2.337c.922 0 1.727-.581 2.158-1.326l4.026-7.002z" fill="#000" fill-opacity=".07"/><title>Fill-7</title><path d="M756.264 191.383l1.6.924.125-1.696-1.92-1.108-1.247.81-1.975-1.14V186.9l1.34-.684V184l-1.53-.74v1.848l-.657.37-.656-.37v-1.847l-1.531.739v2.216l1.324.676v2.28l-1.967 1.136-1.263-.819-1.92 1.109.126 1.695 1.6-.923.648.383.008.753-1.6.924 1.406.957 1.92-1.109-.077-1.485 1.974-1.14 1.968 1.136-.078 1.503 1.92 1.108 1.405-.956-1.6-.924.008-.753z" fill="#fff"/></g><g><title>zone external - grey</title><path fill="#e1f6fe" d="M700.216 243h162v105h-162z"/><path stroke="#fff" stroke-linecap="round" stroke-linejoin="round" stroke-width="2" d="M700.216 243h162v105h-162z"/><text transform="translate(710.216 258)" fill="#757575"><tspan font-family="Roboto" font-size="10" font-weight="400" x="0" y="9">ML (prediction)</tspan></text></g><g><title>Cloud Bigtable</title><path fill="#fff" d="M722 280h116v56H722z"/><path stroke="#dfdfdf" stroke-linecap="round" stroke-linejoin="round" stroke-width="2" clip-path="url(#j)" d="M722 280h116v56H722z"/><text transform="translate(773 294)" fill="#212121"><tspan font-family="Roboto" font-size="12" font-weight="400" x="0" y="11">Cloud</tspan> <tspan font-family="Roboto" font-size="12" font-weight="400" x="0" y="25">Bigtable</tspan></text><title>Cloud Bigtable</title><title>Fill-1</title><path d="M765.666 306.714l-5.754-10.006c-.461-.8-1.297-1.286-2.158-1.286h-11.508c-.922 0-1.727.54-2.158 1.285l-5.754 9.986a2.51 2.51 0 0 0 0 2.502l5.754 10.052c.46.798 1.297 1.331 2.158 1.331h11.508c.922 0 1.727-.581 2.158-1.326l5.754-10.006a2.566 2.566 0 0 0 0-2.532" fill="#4285f4"/><title>Fill-4</title><path d="M757.888 302.915l-.273 2.158-1.469-1.469-5.119-2.096 2.86 2.86-3.464-1.636-5.779 2.716 1.568 1.567-.106 6.083 7.48 7.48h4.168c.922 0 1.727-.581 2.158-1.326l5.226-9.088z" fill="#000" fill-opacity=".07"/><title>Fill-6</title><path d="M756.307 303.988l.004 4.523a.273.273 0 0 1-.136.236l-.734.424-.003-4.682a.548.548 0 0 0-.273-.472l-3.651-2.108a1.98 1.98 0 0 1-.982-1.566l5.502 3.173a.547.547 0 0 1 .273.472" fill="#fff"/><title>Fill-8</title><path d="M757.628 309.724l-3.914 2.264a.272.272 0 0 1-.273.001l-.735-.424 4.053-2.343a.545.545 0 0 0 .273-.472v-4.216c0-.655.328-1.269.865-1.633l.003 6.35a.548.548 0 0 1-.272.473" fill="#fff"/><title>Fill-10</title><path d="M753.322 313.736l-3.92-2.257a.275.275 0 0 1-.137-.238v-.846l4.057 2.338a.547.547 0 0 0 .545 0l3.65-2.108a1.975 1.975 0 0 1 1.847-.067l-5.497 3.178a.547.547 0 0 1-.545 0" fill="#fff"/><title>Fill-12</title><path d="M747.693 312.012l-.004-4.523c0-.097.052-.188.136-.236l.734-.424.003 4.682c0 .194.104.374.273.472l3.651 2.108c.567.327.934.918.98 1.566l-5.5-3.173a.545.545 0 0 1-.273-.472" fill="#fff"/><title>Fill-14</title><path d="M746.372 306.276l3.914-2.264a.272.272 0 0 1 .273-.001l.734.424-4.053 2.343a.546.546 0 0 0-.272.472v4.216c0 .656-.328 1.268-.865 1.634l-.004-6.352c0-.194.104-.374.273-.472" fill="#fff"/><title>Fill-16</title><path d="M750.678 302.264l3.92 2.258a.271.271 0 0 1 .136.236v.848l-4.056-2.338a.544.544 0 0 0-.544 0l-3.652 2.108a1.975 1.975 0 0 1-1.846.066l5.498-3.177a.544.544 0 0 1 .544-.001" fill="#fff"/><title>Fill-18</title><path d="M751.998 309.16a.301.301 0 0 1-.15-.04l-2.585-1.492v.651l2.735 1.58 2.735-1.58v-.65l-2.585 1.491a.3.3 0 0 1-.15.04" fill="#fff"/><g><title>Fill-20</title><path d="M752.148 310.465a.299.299 0 0 1-.3 0l-2.584-1.493v.482a.29.29 0 0 0 .144.25l2.446 1.412c.089.051.2.051.29 0l2.445-1.412a.29.29 0 0 0 .144-.25v-.482z" fill="#fff"/></g><g><title>Fill-22</title><path d="M751.998 308.514l2.735-1.579v-.306a.288.288 0 0 0-.144-.25l-2.446-1.412a.288.288 0 0 0-.29 0l-2.445 1.412a.288.288 0 0 0-.145.25v.306z" fill="#fff"/></g></g><g><title>zone external - purple</title><path fill="#ede7f7" d="M348.75 193h149v100.5h-149z"/><text transform="translate(358.75 208)" fill="#757575"><tspan font-family="Roboto" font-size="10" font-weight="400" x="0" y="9">Data lake</tspan></text></g><g><title>Cloud Storage</title><path fill="#fff" d="M366 228.5h116v56H366z"/><path stroke="#dfdfdf" stroke-linecap="round" stroke-linejoin="round" stroke-width="2" clip-path="url(#k)" d="M366 228.5h116v56H366z"/><text transform="translate(417 242.5)" fill="#212121"><tspan font-family="Roboto" font-size="12" font-weight="400" x="0" y="11">Cloud</tspan> <tspan font-family="Roboto" font-size="12" font-weight="400" x="0" y="25">Storage</tspan></text><title>Cloud Storage</title><title>Fill-1</title><path d="M409.666 255.214l-5.754-10.006c-.461-.8-1.297-1.286-2.158-1.286h-11.508c-.922 0-1.727.54-2.158 1.285l-5.754 9.986a2.51 2.51 0 0 0 0 2.502l5.754 10.052c.46.798 1.297 1.331 2.158 1.331h11.508c.922 0 1.727-.581 2.158-1.326l5.754-10.006a2.566 2.566 0 0 0 0-2.532" fill="#4285f4"/><title>Fill-4</title><path d="M400.7 253.558l-7.913.727-1.533 1.529 1.303 1.304-1.29 2.29 9.669 9.67h.818c.922 0 1.727-.581 2.158-1.326l4.01-6.973z" fill="#000" fill-opacity=".07"/><title>Fill-6</title><path d="M399.124 255.24a.543.543 0 0 1 0-1.083.542.542 0 1 1 0 1.084m1.404-1.744h-9.064a.266.266 0 0 0-.266.265l.001 1.874c0 .146.12.265.265.265h9.064c.146 0 .265-.12.265-.265v-1.874a.266.266 0 0 0-.265-.265" fill="#fff"/><g><title>Fill-8</title><path d="M399.124 258.843a.541.541 0 1 1-.001-1.085.541.541 0 0 1 .001 1.085m1.404-1.745l-9.064.001a.266.266 0 0 0-.266.266l.001 1.873c0 .146.12.265.265.265h9.064c.146 0 .265-.12.265-.265v-1.874a.266.266 0 0 0-.265-.265" fill="#fff"/></g></g><g><title>Cloud Dataflow</title><path fill="#fff" d="M429.5 58h114v56h-114z"/><path stroke="#dfdfdf" stroke-linecap="round" stroke-linejoin="round" stroke-width="2" clip-path="url(#l)" d="M429.5 58h114v56h-114z"/><text transform="translate(480.5 72)" fill="#212121"><tspan font-family="Roboto" font-size="12" font-weight="400" x="0" y="11">Cloud</tspan> <tspan font-family="Roboto" font-size="12" font-weight="400" x="0" y="25">Dataflow</tspan></text><title>Cloud Dataflow</title><title>Fill-1</title><path d="M473.166 84.714l-5.754-10.006c-.461-.8-1.297-1.286-2.158-1.286h-11.508c-.922 0-1.727.54-2.158 1.285l-5.754 9.986a2.51 2.51 0 0 0 0 2.502l5.754 10.052c.46.798 1.297 1.331 2.158 1.331h11.508c.922 0 1.727-.581 2.158-1.326l5.754-10.006a2.566 2.566 0 0 0 0-2.532" fill="#4285f4"/><title>Fill-4</title><path d="M463.08 79.798l-3.553.834-3.607-.834 1.98 1.98-3.202 2.953.847.847-.787 1.01.988.986-1.048 1.212 3.017 3.016-1.795.455 6.32 6.321h3.014c.922 0 1.727-.581 2.158-1.326l4.79-8.332z" fill="#000" fill-opacity=".07"/><title>Fill-6</title><path d="M463.69 85.25a.782.782 0 1 1 0 1.565.782.782 0 0 1 0-1.565" fill="#fff"/><title>Fill-8</title><path d="M455.31 85.25a.782.782 0 1 1 0 1.564.782.782 0 0 1 0-1.564" fill="#fff"/><title>Fill-10</title><path d="M459.5 84.077a.783.783 0 1 1 0 1.565.783.783 0 0 1 0-1.565" fill="#fff"/><title>Fill-12</title><path d="M459.5 86.424a.782.782 0 1 1 0 1.564.782.782 0 0 1 0-1.564" fill="#fff"/><g><title>Fill-14</title><path d="M460.679 81.185l2.401-1.387-1.162-.671h-.032l-2.386 1.377-2.386-1.377h-.032l-1.162.671 2.4 1.387-3.622 2.08v1.466h1.236v-.786l2.972-1.737v1.276h1.188v-1.276l2.966 1.737v.786h1.242v-1.466z" fill="#fff"/></g><g><title>Fill-16</title><path d="M463.06 88.106l-2.966 1.737V88.58h-1.188v1.262l-2.972-1.737v-.786h-1.236v1.466l3.627 2.082-2.405 1.389 1.162.671h.032l2.386-1.378 2.386 1.378h.032l1.163-.671-2.406-1.389 3.627-2.082V87.32h-1.242z" fill="#fff"/></g></g><g><title>Cloud Pub/Sub</title><path fill="#fff" d="M304.5 58h114v56h-114z"/><path stroke="#dfdfdf" stroke-linecap="round" stroke-linejoin="round" stroke-width="2" clip-path="url(#m)" d="M304.5 58h114v56h-114z"/><text transform="translate(355.5 72)" fill="#212121"><tspan font-family="Roboto" font-size="12" font-weight="400" x="0" y="11">Cloud </tspan> <tspan font-family="Roboto" font-size="12" font-weight="400" x="0" y="25">Pub/Sub</tspan></text><title>Cloud Pub/Sub</title><title>Fill-1</title><path d="M348.166 84.714l-5.754-10.006c-.461-.8-1.297-1.286-2.158-1.286h-11.508c-.922 0-1.727.54-2.158 1.285l-5.754 9.986a2.51 2.51 0 0 0 0 2.502l5.754 10.052c.46.798 1.297 1.331 2.158 1.331h11.508c.922 0 1.727-.581 2.158-1.326l5.754-10.006a2.566 2.566 0 0 0 0-2.532" fill="#4285f4"/><title>Fill-4</title><path d="M340.017 82.444l-1.282.266-3.195-3.194-1.021 1.911-.555 2.211.938.939-1.801.368-2.472-2.471-1.678 1.613 3.09 3.089-3.274 2.604 8.799 8.798h2.688c.922 0 1.727-.581 2.158-1.326l4.532-7.881z" fill="#000" fill-opacity=".07"/><title>Fill-7</title><path d="M338.625 82.274a1.164 1.164 0 1 1 1.166 2.015 1.164 1.164 0 0 1-1.166-2.015" fill="#fff"/><title>Fill-9</title><path d="M329.21 84.29a1.165 1.165 0 1 1 1.165-2.018 1.165 1.165 0 0 1-1.165 2.018" fill="#fff"/><title>Fill-11</title><path d="M335.665 91.435a1.164 1.164 0 1 1-2.329 0 1.164 1.164 0 0 1 2.329 0" fill="#fff"/><title>Fill-13</title><path d="M334.5 83.58c.185 0 .364.023.538.062v-3.079h-1.075v3.08c.173-.04.352-.063.537-.063" fill="#fff"/><title>Fill-15</title><path d="M336.812 86.714a2.41 2.41 0 0 1-.54.93l2.666 1.54.538-.932z" fill="#fff"/><title>Fill-17</title><path d="M332.188 86.714l-2.664 1.538.538.931 2.666-1.54a2.409 2.409 0 0 1-.54-.93" fill="#fff"/><title>Fill-19</title><path d="M336.382 86a1.881 1.881 0 1 1-3.762 0 1.881 1.881 0 0 1 3.762 0" fill="#fff"/><g><title>Fill-21</title><path d="M329.054 87.437A1.48 1.48 0 1 1 330.53 90a1.48 1.48 0 0 1-1.477-2.563" fill="#fff"/></g><g><title>Fill-23</title><path d="M338.469 89.997a1.479 1.479 0 1 1 1.48-2.558 1.479 1.479 0 0 1-1.48 2.558" fill="#fff"/></g><g><title>Fill-25</title><path d="M335.978 80.564a1.479 1.479 0 1 1-2.957 0 1.479 1.479 0 0 1 2.957 0" fill="#fff"/></g></g><g><title>GCP Console</title><path fill="#fff" d="M193 323.5h119v56H193z"/><path stroke="#dfdfdf" stroke-linecap="round" stroke-linejoin="round" stroke-width="2" clip-path="url(#n)" d="M193 323.5h119v56H193z"/><text transform="translate(244 337.5)" fill="#212121"><tspan font-family="Roboto" font-size="12" font-weight="400" x="0" y="11">Transfer</tspan> <tspan font-family="Roboto" font-size="12" font-weight="400" x="0" y="25">Appliance</tspan></text><title>GCP Console</title><title>Fill-1</title><path d="M236.666 350.214l-5.754-10.006c-.461-.8-1.297-1.286-2.158-1.286h-11.508c-.922 0-1.727.54-2.158 1.285l-5.754 9.986a2.51 2.51 0 0 0 0 2.502l5.754 10.052c.46.798 1.297 1.331 2.158 1.331h11.508c.922 0 1.727-.581 2.158-1.326l5.754-10.006a2.566 2.566 0 0 0 0-2.532" fill="#4285f4"/><title>Fill-4</title><path d="M226.426 345.975l-5.836.94-1.146 3.828-1.767-1.537 1.855 7.795 7.077 7.077h2.145c.922 0 1.727-.581 2.158-1.326l4.47-7.772z" fill="#000" fill-opacity=".07"/><title>Fill-6</title><path d="M224.697 351.517a1.734 1.734 0 1 1-3.468 0 1.734 1.734 0 0 1 3.468 0" fill="#fff"/><title>Fill-8</title><path d="M229.385 351.07l-1.298-2.262h-2.65l1.552 2.698-.418.729-1.579 2.742-.487.846-.853 1.465h2.151a.875.875 0 0 0 .753-.437l2.83-4.907a.875.875 0 0 0 0-.864" fill="#fff"/><title>Fill-10</title><path d="M221 354.977l-1.997-3.47-1.326-2.3-1.071 1.862a.875.875 0 0 0 0 .864l2.819 4.92a.875.875 0 0 0 .752.438h2.589l1.336-2.314z" fill="#fff"/><g><title>Fill-12</title><path d="M227.645 348.036l-1.076-1.876a.875.875 0 0 0-.752-.438h-5.64a.875.875 0 0 0-.752.438l-1.308 2.285 1.327 2.298 1.553-2.698h6.648z" fill="#fff"/></g></g><g><title>GCP Console</title><path fill="#fff" d="M193 388h119v56H193z"/><path stroke="#dfdfdf" stroke-linecap="round" stroke-linejoin="round" stroke-width="2" clip-path="url(#o)" d="M193 388h119v56H193z"/><text transform="translate(244 402)" fill="#212121"><tspan font-family="Roboto" font-size="12" font-weight="400" x="0" y="11">Transfer</tspan> <tspan font-family="Roboto" font-size="12" font-weight="400" x="0" y="25">Service</tspan></text><title>GCP Console</title><title>Fill-1</title><path d="M236.666 414.714l-5.754-10.006c-.461-.8-1.297-1.286-2.158-1.286h-11.508c-.922 0-1.727.54-2.158 1.285l-5.754 9.986a2.51 2.51 0 0 0 0 2.502l5.754 10.052c.46.798 1.297 1.331 2.158 1.331h11.508c.922 0 1.727-.581 2.158-1.326l5.754-10.006a2.566 2.566 0 0 0 0-2.532" fill="#4285f4"/><title>Fill-4</title><path d="M226.426 410.475l-5.836.94-1.146 3.828-1.767-1.537 1.855 7.795 7.077 7.077h2.145c.922 0 1.727-.581 2.158-1.326l4.47-7.772z" fill="#000" fill-opacity=".07"/><title>Fill-6</title><path d="M224.697 416.017a1.734 1.734 0 1 1-3.468 0 1.734 1.734 0 0 1 3.468 0" fill="#fff"/><title>Fill-8</title><path d="M229.385 415.57l-1.298-2.262h-2.65l1.552 2.698-.418.729-1.579 2.742-.487.846-.853 1.465h2.151a.875.875 0 0 0 .753-.437l2.83-4.907a.875.875 0 0 0 0-.864" fill="#fff"/><title>Fill-10</title><path d="M221 419.477l-1.997-3.47-1.326-2.3-1.071 1.862a.875.875 0 0 0 0 .864l2.819 4.92a.875.875 0 0 0 .752.438h2.589l1.336-2.314z" fill="#fff"/><g><title>Fill-12</title><path d="M227.645 412.536l-1.076-1.876a.875.875 0 0 0-.752-.438h-5.64a.875.875 0 0 0-.752.438l-1.308 2.285 1.327 2.298 1.553-2.698h6.648z" fill="#fff"/></g></g><g><title>GCP Console</title><path fill="#fff" d="M193 452.5h119v56H193z"/><path stroke="#dfdfdf" stroke-linecap="round" stroke-linejoin="round" stroke-width="2" clip-path="url(#p)" d="M193 452.5h119v56H193z"/><text transform="translate(244 473.5)" fill="#212121"><tspan font-family="Roboto" font-size="12" font-weight="400" x="0" y="11">gsutil</tspan></text><title>GCP Console</title><title>Fill-1</title><path d="M236.666 479.214l-5.754-10.006c-.461-.8-1.297-1.286-2.158-1.286h-11.508c-.922 0-1.727.54-2.158 1.285l-5.754 9.986a2.51 2.51 0 0 0 0 2.502l5.754 10.052c.46.798 1.297 1.331 2.158 1.331h11.508c.922 0 1.727-.581 2.158-1.326l5.754-10.006a2.566 2.566 0 0 0 0-2.532" fill="#4285f4"/><title>Fill-4</title><path d="M226.426 474.975l-5.836.94-1.146 3.828-1.767-1.537 1.855 7.795 7.077 7.077h2.145c.922 0 1.727-.581 2.158-1.326l4.47-7.772z" fill="#000" fill-opacity=".07"/><title>Fill-6</title><path d="M224.697 480.517a1.734 1.734 0 1 1-3.468 0 1.734 1.734 0 0 1 3.468 0" fill="#fff"/><title>Fill-8</title><path d="M229.385 480.07l-1.298-2.262h-2.65l1.552 2.698-.418.729-1.579 2.742-.487.846-.853 1.465h2.151a.875.875 0 0 0 .753-.437l2.83-4.907a.875.875 0 0 0 0-.864" fill="#fff"/><title>Fill-10</title><path d="M221 483.977l-1.997-3.47-1.326-2.3-1.071 1.862a.875.875 0 0 0 0 .864l2.819 4.92a.875.875 0 0 0 .752.438h2.589l1.336-2.314z" fill="#fff"/><g><title>Fill-12</title><path d="M227.645 477.036l-1.076-1.876a.875.875 0 0 0-.752-.438h-5.64a.875.875 0 0 0-.752.438l-1.308 2.285 1.327 2.298 1.553-2.698h6.648z" fill="#fff"/></g></g><g><title>zone external - blue</title><path fill="#e1f6fe" d="M347.5 346h149v174h-149z"/><text transform="translate(357.5 361)" fill="#757575"><tspan font-family="Roboto" font-size="10" font-weight="400" x="0" y="9">Data mining and exploration</tspan></text></g><g><title>zone external - blue</title><path fill="#e1f6fe" d="M524.483 143h149v174h-149z"/><text transform="translate(534.483 158)" fill="#757575"><tspan font-family="Roboto" font-size="10" font-weight="400" x="0" y="9">ML (training)</tspan></text></g><g><title>Cloud Datalab</title><path fill="#fff" d="M362.5 384.5h119v56h-119z"/><path stroke="#dfdfdf" stroke-linecap="round" stroke-linejoin="round" stroke-width="2" clip-path="url(#q)" d="M362.5 384.5h119v56h-119z"/><text transform="translate(413.5 398.5)" fill="#212121"><tspan font-family="Roboto" font-size="12" font-weight="400" x="0" y="11">Cloud </tspan> <tspan font-family="Roboto" font-size="12" font-weight="400" x="0" y="25">Datalab</tspan></text><title>Cloud Datalab</title><title>Fill-1</title><path d="M406.166 411.214l-5.754-10.006c-.461-.8-1.297-1.286-2.158-1.286h-11.508c-.922 0-1.727.54-2.158 1.285l-5.754 9.986a2.51 2.51 0 0 0 0 2.502l5.754 10.052c.46.798 1.297 1.331 2.158 1.331h11.508c.922 0 1.727-.581 2.158-1.326l5.754-10.006a2.566 2.566 0 0 0 0-2.532" fill="#4285f4"/><title>Fill-4</title><path d="M392.63 404.13l-.754.766 1.892 1.892-.873.207 1.881 2.073-.669.155-2.26-2.261-.772.743 1.612 1.612-1.455-.018-.964.564.955.954-3.134 5.443.905 2.425 6.393 6.393h2.867c.922 0 1.727-.581 2.158-1.326l4.323-7.517z" fill="#000" fill-opacity=".07"/><title>Fill-6</title><path d="M391.436 406.769a.537.537 0 1 1 0 1.074.537.537 0 0 1 0-1.074" fill="#fff"/><title>Fill-8</title><path d="M393.461 405.618a.805.805 0 1 1-.001 1.61.805.805 0 0 1 .001-1.61" fill="#fff"/><title>Fill-10</title><path d="M392.241 403.964a.536.536 0 1 1 0 1.072.536.536 0 0 1 0-1.072" fill="#fff"/><title>Fill-12</title><path d="M394.5 416.438l-.378-.657h2.594l-2.581-4.47h-.09l2.22 3.814h-5.774l-.693 1.198a.269.269 0 0 0 0 .269l.842 1.458h5.547l.92-1.593-.012-.02z" fill="#fff"/><title>Fill-14</title><path d="M396.295 416.54l-.73 1.262a.268.268 0 0 1-.232.134h-5.666a.268.268 0 0 1-.232-.134l-.73-1.263a.269.269 0 0 1 0-.268l2.838-4.914a.537.537 0 0 0 .072-.269v-1.213h1.77v1.213c0 .094.025.186.072.269l2.838 4.914a.269.269 0 0 1 0 .268m.913-.38l-2.928-5.072a.269.269 0 0 1-.036-.135v-1.077h.427a.11.11 0 0 0 .11-.109v-.618a.11.11 0 0 0-.11-.11h-4.342a.11.11 0 0 0-.11.11v.618c0 .06.05.109.11.109h.427v1.077a.269.269 0 0 1-.036.135l-2.929 5.072a.537.537 0 0 0 0 .537l1.07 1.854a.537.537 0 0 0 .465.268h6.348a.536.536 0 0 0 .464-.268l1.07-1.854a.535.535 0 0 0 0-.537" fill="#fff"/><g><title>Fill-16</title><path d="M392.4 412.926h2.62l-.394-.621h-2.584z" fill="#fff"/></g><g><title>Fill-18</title><path d="M392.937 413.813l.376.649h2.671l-.386-.65z" fill="#fff"/></g></g><g><title>Cloud ML Engine</title><path fill="#fff" d="M539.483 246h119v56h-119z"/><path stroke="#dfdfdf" stroke-linecap="round" stroke-linejoin="round" stroke-width="2" clip-path="url(#r)" d="M539.483 246h119v56h-119z"/><text transform="translate(590.483 267)" fill="#212121"><tspan font-family="Roboto" font-size="12" font-weight="400" x="0" y="4">Cloud ML</tspan> <tspan font-family="Roboto" font-size="12" font-weight="400" x="0" y="18">Engine</tspan></text><title>Cloud ML Engine</title><title>Fill-1</title><path d="M583.15 272.714l-5.755-10.006c-.461-.8-1.297-1.286-2.158-1.286H563.73c-.922 0-1.727.54-2.158 1.285l-5.754 9.986a2.51 2.51 0 0 0 0 2.502l5.754 10.052c.46.798 1.297 1.331 2.158 1.331h11.508c.922 0 1.727-.581 2.158-1.326l5.754-10.006a2.566 2.566 0 0 0 0-2.532" fill="#4285f4"/><title>Fill-4</title><path d="M573.023 267.656l-2.656 1.322-1.321-1.322-4.625 2.625 1.015 1.015-2.537 3.798 1.544 1.544 1.5 3.706 6.234 6.234h3.06c.922 0 1.727-.581 2.158-1.326l4.828-8.396z" fill="#000" fill-opacity=".07"/><title>Fill-7</title><path d="M572.967 276.188l.64-1.094h2.46l.635-1.094-1.65-2.844h-2.566l-.743-1.312h-.729v-.875h1.24l.742 1.312h1.55l-1.523-2.625h-3.102v3.719h1.317l.51.875h-1.827V274h1.661l.758-1.313h2.04l.505.875h-2.04l-.758 1.313h-2.166v3.281h2.733l-.506.875h-2.227v1.313h3.102l2.537-4.375h-1.451l-.64 1.094h-2.455v-.875z" fill="#fff"/><g><title>Fill-9</title><path d="M565.999 276.188l-.64-1.094h-2.46l-.635-1.094 1.65-2.844h2.567l.742-1.312h.729v-.875h-1.24l-.742 1.312h-1.549l1.522-2.625h3.103v3.719h-1.317l-.51.875h1.827V274h-1.662l-.758-1.313h-2.04l-.505.875h2.04l.758 1.313h2.167v3.281h-2.733l.505.875h2.228v1.313h-3.103l-2.537-4.375h1.451l.64 1.094h2.455v-.875z" fill="#fff"/></g></g><g><title>Cloud Datalab</title><path fill="#fff" d="M539.483 181.5h119v56h-119z"/><path stroke="#dfdfdf" stroke-linecap="round" stroke-linejoin="round" stroke-width="2" clip-path="url(#s)" d="M539.483 181.5h119v56h-119z"/><text transform="translate(590.483 195.5)" fill="#212121"><tspan font-family="Roboto" font-size="12" font-weight="400" x="0" y="11">Cloud </tspan> <tspan font-family="Roboto" font-size="12" font-weight="400" x="0" y="25">Datalab</tspan></text><title>Cloud Datalab</title><title>Fill-1</title><path d="M583.15 208.214l-5.755-10.006c-.461-.8-1.297-1.286-2.158-1.286H563.73c-.922 0-1.727.54-2.158 1.285l-5.754 9.986a2.51 2.51 0 0 0 0 2.502l5.754 10.052c.46.798 1.297 1.331 2.158 1.331h11.508c.922 0 1.727-.581 2.158-1.326l5.754-10.006a2.566 2.566 0 0 0 0-2.532" fill="#4285f4"/><title>Fill-4</title><path d="M569.613 201.13l-.754.766 1.892 1.892-.873.207 1.881 2.073-.668.155-2.26-2.261-.773.743 1.612 1.612-1.455-.018-.964.564.955.954-3.134 5.443.905 2.425 6.393 6.393h2.867c.922 0 1.727-.581 2.158-1.326l4.323-7.517z" fill="#000" fill-opacity=".07"/><title>Fill-6</title><path d="M568.42 203.769a.537.537 0 1 1-.002 1.074.537.537 0 0 1 .001-1.074" fill="#fff"/><title>Fill-8</title><path d="M570.444 202.618a.805.805 0 1 1-.001 1.61.805.805 0 0 1 .001-1.61" fill="#fff"/><title>Fill-10</title><path d="M569.224 200.964a.536.536 0 1 1 0 1.072.536.536 0 0 1 0-1.072" fill="#fff"/><title>Fill-12</title><path d="M571.483 213.437l-.378-.656h2.594l-2.581-4.47h-.09l2.22 3.814h-5.775l-.692 1.198a.269.269 0 0 0 0 .268l.842 1.46h5.547l.92-1.594-.012-.02z" fill="#fff"/><title>Fill-14</title><path d="M573.278 213.54l-.73 1.262a.268.268 0 0 1-.232.134h-5.666a.267.267 0 0 1-.232-.134l-.73-1.263a.269.269 0 0 1 0-.268l2.838-4.914a.537.537 0 0 0 .072-.269v-1.213h1.77v1.213c0 .094.025.186.072.269l2.838 4.914a.269.269 0 0 1 0 .268m.913-.38l-2.928-5.072a.269.269 0 0 1-.036-.135v-1.077h.427a.11.11 0 0 0 .11-.109v-.618a.11.11 0 0 0-.11-.11h-4.342a.11.11 0 0 0-.11.11v.618c0 .06.05.109.11.109h.427v1.077a.269.269 0 0 1-.036.135l-2.929 5.072a.537.537 0 0 0 0 .537l1.07 1.854a.537.537 0 0 0 .465.268h6.348a.536.536 0 0 0 .464-.268l1.07-1.854a.535.535 0 0 0 0-.537" fill="#fff"/><g><title>Fill-16</title><path d="M569.384 209.926h2.618l-.393-.621h-2.584z" fill="#fff"/></g><g><title>Fill-18</title><path d="M569.92 210.812l.376.65h2.671l-.386-.65z" fill="#fff"/></g></g><g><title>Cloud Dataprep</title><path fill="#fff" d="M362.5 449h119v56h-119z"/><path stroke="#dfdfdf" stroke-linecap="round" stroke-linejoin="round" stroke-width="2" clip-path="url(#t)" d="M362.5 449h119v56h-119z"/><text transform="translate(413.5 463)" fill="#212121"><tspan font-family="Roboto" font-size="12" font-weight="400" x="0" y="11">Cloud</tspan> <tspan font-family="Roboto" font-size="12" font-weight="400" x="0" y="25">Dataprep</tspan></text><title>Cloud Dataprep</title><title>Fill-1</title><path d="M406.166 475.714l-5.754-10.006c-.461-.8-1.297-1.286-2.158-1.286h-11.508c-.922 0-1.727.54-2.158 1.285l-5.754 9.986a2.51 2.51 0 0 0 0 2.502l5.754 10.052c.46.798 1.297 1.331 2.158 1.331h11.508c.922 0 1.727-.581 2.158-1.326l5.754-10.006a2.566 2.566 0 0 0 0-2.532" fill="#4285f4"/><title>Fill-4</title><path d="M400.412 488.252l4.055-7.051-8.754-8.776-.53.211-2.14-2.14-.895 3.692-1.45-1.45-1.513.291-.031 1.296 1.937 1.937-.043 1.454 1.09 1.087.07.795-3.405-3.406-1.442.097-.162 1.427 2.095 2.092-.142 1.364 8.406 8.406h.696c.922 0 1.727-.581 2.158-1.326" fill="#000" fill-opacity=".07"/><title>Fill-6</title><path d="M387.989 475.834a1.106 1.106 0 1 0 0 2.213 1.106 1.106 0 0 0 0-2.213zm0 .516a.59.59 0 1 1 0 1.181.59.59 0 0 1 0-1.18z" fill="#fff"/><title>Fill-8</title><path d="M391.833 477.531a.59.59 0 1 1 .116-1.169v1.158a.591.591 0 0 1-.116.011m6.567-1.731h-5.358v-1.083h2.548a.236.236 0 0 0 .197-.26v-1.824a.236.236 0 0 0-.197-.267h-2.548v-1.87h-1.093v5.354a1.112 1.112 0 0 0-.112-.011l-.004-.005a1.106 1.106 0 1 0 .009 2.213c.037 0 .071-.007.107-.01v5.47h1.093v-1.921h1.51c.085 0 .152-.116.152-.26v-1.833c.003-.142-.067-.258-.153-.258h-1.509v-1.094h5.358c.199 0 .363-.115.363-.26v-1.821c0-.147-.164-.26-.363-.26" fill="#fff"/><title>Fill-10</title><path d="M389.946 479.292a1.106 1.106 0 1 0 0 2.213 1.106 1.106 0 0 0 0-2.213m0 .516a.59.59 0 1 1 0 1.18.59.59 0 0 1 0-1.18" fill="#fff"/><g><title>Fill-12</title><path d="M389.946 472.443a1.106 1.106 0 1 0 0 2.213 1.106 1.106 0 0 0 0-2.213zm0 .516a.59.59 0 1 1 0 1.18.59.59 0 0 1 0-1.18z" fill="#fff"/></g></g><g><title>line arrow - grey</title><path d="M156.5 228h182.35" marker-end="url(#u)" stroke="#616161" stroke-linecap="round" stroke-linejoin="round"/></g><g><title>line arrow - grey</title><path marker-end="url(#u)" stroke="#616161" stroke-linecap="round" stroke-linejoin="round" d="M156.5 70h130.6"/></g><g><title>line arrow - grey</title><path marker-end="url(#u)" stroke="#616161" stroke-linecap="round" stroke-linejoin="round" d="M551 70h129.1"/></g><g><title>line arrow - grey</title><path d="M423.796 122.5l-.171 34.125-.133 26.475" marker-end="url(#u)" stroke="#616161" stroke-linecap="round" stroke-linejoin="round"/></g><g><title>line arrow - grey</title><path d="M422.75 312.25v23.85" marker-end="url(#u)" stroke="#616161" stroke-linecap="round" stroke-linejoin="round"/></g><g><title>line arrow - grey</title><path marker-end="url(#u)" stroke="#616161" stroke-linecap="round" stroke-linejoin="round" d="M422.75 312.25v-8.85"/></g><g><title>line arrow - grey</title><path d="M252.5 285v-23.795h86.35" marker-end="url(#u)" stroke="#616161" stroke-linecap="round" stroke-linejoin="round"/></g><g><title>line arrow - grey</title><path d="M497.75 243.027l9-.027h11v224.375h182.097" marker-end="url(#u)" stroke="#616161" stroke-linecap="round" stroke-linejoin="round"/></g><g><title>line arrow - grey</title><path d="M497.75 269h10v340.375h192.097" marker-end="url(#u)" stroke="#616161" stroke-linecap="round" stroke-linejoin="round"/></g><g><title>line arrow - grey</title><path d="M497.75 217.5h16.833" marker-end="url(#u)" stroke="#616161" stroke-linecap="round" stroke-linejoin="round"/></g><g><title>line arrow - grey</title><path d="M673.483 230h8.67v65.5h7.663" marker-end="url(#u)" stroke="#616161" stroke-linecap="round" stroke-linejoin="round"/></g><g><text transform="translate(429.5 148)" fill="#757575"><tspan font-family="Roboto" font-size="10" font-weight="400" x="0" y="9">journal</tspan></text></g></g></svg>